<svg fill="#000000" xmlns="http://www.w3.org/2000/svg"  viewBox="0 0 50 50" width="50px" height="50px"><path d="M 25 0 C 12.317 0 2 10.318 2 23 C 2 29.502 4.7192656 35.373547 9.0722656 39.560547 L 7.1191406 42.978516 C 6.9461406 43.280516 6.8574219 43.622703 6.8574219 43.970703 L 6.8574219 48 C 6.8574219 48.718 7.2422344 49.380328 7.8652344 49.736328 C 8.1722344 49.912328 8.5154219 50 8.8574219 50 C 9.2084219 50 9.5580937 49.907656 9.8710938 49.722656 L 13.345703 47.677734 C 13.645703 47.500734 13.894406 47.247313 14.066406 46.945312 L 15.730469 44.033203 C 18.569469 45.290203 21.701 46 25 46 C 28.299 46 31.430531 45.290203 34.269531 44.033203 L 35.933594 46.945312 C 36.106594 47.247312 36.354297 47.500734 36.654297 47.677734 L 40.128906 49.722656 C 40.441906 49.907656 40.791578 50 41.142578 50 C 41.484578 50 41.827766 49.912328 42.134766 49.736328 C 42.757766 49.380328 43.142578 48.717 43.142578 48 L 43.142578 43.970703 C 43.142578 43.622703 43.052859 43.280516 42.880859 42.978516 L 40.927734 39.560547 C 45.280734 35.373547 48 29.502 48 23 C 48 10.318 37.683 0 25 0 z M 23 9 L 27 9 C 27.552 9 28 9.448 28 10 L 28 13 L 30 13 C 31.105 13 32 13.895 32 15 L 32 23.333984 C 32 23.599984 31.894078 23.854969 31.705078 24.042969 L 26.25 29.466797 C 25.537 30.175797 24.385734 30.172937 23.677734 29.460938 L 18.291016 24.042969 C 18.105016 23.854969 18 23.602891 18 23.337891 L 18 15 C 18 13.895 18.895 13 20 13 L 22 13 L 22 10 C 22 9.448 22.448 9 23 9 z M 25 17 A 3 3 0 0 0 25 23 A 3 3 0 0 0 25 17 z M 36.949219 24 L 40.949219 24 C 40.686219 28.226 38.775422 32.010656 35.857422 34.722656 L 35.859375 34.724609 C 34.876375 35.637609 33.780703 36.428266 32.595703 37.072266 L 32.591797 37.066406 C 30.331797 38.294406 27.749 39 25 39 C 22.251 39 19.667203 38.294406 17.408203 37.066406 L 12.330078 45.953125 L 8.8574219 48 L 8.8574219 43.970703 L 18.501953 27.091797 L 21.427734 30.033203 L 19.388672 33.599609 C 21.063672 34.491609 22.973 35 25 35 C 27.027 35 28.934375 34.489656 30.609375 33.597656 L 30.603516 33.589844 C 31.798516 32.949844 32.879875 32.112094 33.796875 31.121094 L 33.796875 31.115234 L 33.804688 31.128906 C 35.566688 29.218906 36.721219 26.74 36.949219 24 z M 31.490234 27.076172 L 32.75 29.28125 C 31.89 30.33725 30.822281 31.216516 29.613281 31.853516 L 28.552734 29.998047 L 31.490234 27.076172 z M 36.876953 36.501953 L 41.144531 43.970703 L 41.144531 48 L 41.142578 48 L 37.669922 45.953125 L 33.587891 38.808594 C 34.769891 38.162594 35.871953 37.386953 36.876953 36.501953 z"/></svg>